<svg width="388" height="287" viewBox="0 0 388 287" fill="none" xmlns="http://www.w3.org/2000/svg">
<path d="M324.11 39.9983H58.1408C53.9539 39.9983 50.5645 43.3983 50.5645 47.5983V209.198C50.5645 213.398 53.9539 216.798 58.1408 216.798H324.11C328.297 216.798 331.686 213.398 331.686 209.198V47.5983C331.686 43.3983 328.297 39.9983 324.11 39.9983Z" fill="#3A3E45"/>
<path d="M321.518 47.7983H60.7334V208.998H321.518V47.7983Z" fill="#E6EFF9"/>
<path d="M357.306 218.698H24.9443V226.098C24.9443 234.798 32.0222 241.898 40.6951 241.898H341.555C350.228 241.898 357.306 234.798 357.306 226.098V218.698Z" fill="#3A3E45"/>
<path d="M222.428 228.098H159.823C154.939 228.098 150.951 224.098 150.951 219.198V218.698H231.3V219.198C231.3 224.098 227.313 228.098 222.428 228.098Z" fill="#E9F1F9"/>
<path d="M156.234 200.598C162.675 200.598 167.897 195.36 167.897 188.898C167.897 182.437 162.675 177.198 156.234 177.198C149.792 177.198 144.57 182.437 144.57 188.898C144.57 195.36 149.792 200.598 156.234 200.598Z" fill="#F3B659"/>
<path d="M151.948 188.898C151.948 190.098 150.951 190.998 149.854 190.998C148.758 190.998 147.761 189.998 147.761 188.898C147.761 187.798 148.758 186.798 149.854 186.798C150.951 186.798 151.948 187.698 151.948 188.898Z" fill="white"/>
<path d="M158.329 188.898C158.329 190.098 157.332 190.998 156.235 190.998C155.039 190.998 154.142 189.998 154.142 188.898C154.142 187.798 155.138 186.798 156.235 186.798C157.431 186.698 158.329 187.698 158.329 188.898Z" fill="white"/>
<path d="M164.808 188.898C164.808 190.098 163.811 190.998 162.715 190.998C161.518 190.998 160.621 189.998 160.621 188.898C160.621 187.798 161.618 186.798 162.715 186.798C163.911 186.698 164.808 187.698 164.808 188.898Z" fill="white"/>
<path d="M191.124 200.598C197.566 200.598 202.788 195.36 202.788 188.898C202.788 182.437 197.566 177.198 191.124 177.198C184.683 177.198 179.461 182.437 179.461 188.898C179.461 195.36 184.683 200.598 191.124 200.598Z" fill="#D42F33"/>
<path d="M195.311 196.498C194.713 196.498 194.115 196.398 193.617 196.198C192.819 195.898 192.121 195.598 191.523 195.198C190.327 194.498 189.23 193.598 188.234 192.698C187.137 191.698 186.24 190.598 185.442 189.398C184.944 188.598 184.445 187.798 184.146 186.998C183.947 186.498 183.748 185.998 183.748 185.498C183.648 184.998 183.648 184.598 183.748 184.098C183.847 183.698 183.947 183.398 184.246 183.098C184.645 182.698 185.143 182.198 185.542 181.798C186.14 181.198 187.137 181.298 187.635 181.798C188.333 182.498 189.031 183.198 189.729 183.898C190.028 184.198 190.227 184.598 190.128 185.098C190.028 185.698 189.729 186.098 189.23 186.298C188.732 186.498 188.433 186.798 188.333 187.198C188.234 187.398 188.234 187.698 188.333 187.898C188.533 188.498 188.832 189.098 189.23 189.598C189.829 190.398 190.526 190.998 191.324 191.498C191.623 191.698 191.922 191.798 192.221 191.898C192.919 192.098 193.716 191.698 193.916 190.998C194.115 190.398 194.514 190.098 195.112 190.098C195.611 189.998 196.009 190.198 196.308 190.498C197.006 191.198 197.704 191.898 198.402 192.598C198.701 192.898 198.801 193.298 198.801 193.798C198.801 194.198 198.601 194.498 198.302 194.798C197.903 195.198 197.405 195.698 197.006 196.098C196.707 196.398 196.408 196.598 196.009 196.598C195.71 196.498 195.511 196.498 195.311 196.498Z" fill="#EEF4FE"/>
<path d="M226.016 200.598C232.458 200.598 237.68 195.36 237.68 188.898C237.68 182.437 232.458 177.198 226.016 177.198C219.575 177.198 214.353 182.437 214.353 188.898C214.353 195.36 219.575 200.598 226.016 200.598Z" fill="#45ABA8"/>
<path d="M226.315 181.298C226.914 181.398 227.312 181.598 227.711 181.898C228.21 182.398 228.409 182.898 228.409 183.598C228.409 185.198 228.409 186.798 228.409 188.398C228.409 189.498 227.611 190.498 226.515 190.698C225.219 190.898 224.023 190.098 223.823 188.798C223.823 188.698 223.823 188.498 223.823 188.398C223.823 186.798 223.823 185.298 223.823 183.698C223.823 182.798 224.222 182.098 225.02 181.598C225.319 181.398 225.618 181.398 225.917 181.298C225.917 181.298 225.917 181.298 226.016 181.298C226.116 181.298 226.116 181.298 226.216 181.298C226.216 181.298 226.216 181.298 226.315 181.298C226.216 181.298 226.216 181.298 226.315 181.298Z" fill="white"/>
<path d="M231.2 188.298C231.2 188.398 231.2 188.498 231.2 188.498V188.598C231.2 188.598 231.2 188.598 231.2 188.698V188.798C231.1 190.998 229.505 192.998 227.212 193.498C227.013 193.598 226.813 193.598 226.514 193.598C226.514 193.598 226.514 193.598 226.415 193.598C226.415 193.598 226.415 193.598 226.415 193.698V193.798C226.415 194.398 226.415 194.898 226.415 195.498C226.415 195.498 226.415 195.498 226.415 195.598C226.415 195.598 226.415 195.598 226.514 195.598H226.614C226.913 195.598 227.212 195.598 227.411 195.598C227.611 195.598 227.81 195.698 227.81 195.898C227.91 196.198 227.71 196.398 227.411 196.498H227.312C226.415 196.498 225.517 196.498 224.62 196.498C224.52 196.498 224.52 196.498 224.421 196.498C224.221 196.398 224.122 196.198 224.122 195.998C224.122 195.798 224.321 195.598 224.52 195.598H224.62C224.919 195.598 225.218 195.598 225.517 195.598C225.617 195.598 225.617 195.598 225.617 195.498C225.617 194.898 225.617 194.298 225.617 193.698C225.617 193.598 225.617 193.598 225.517 193.598C225.019 193.598 224.62 193.398 224.221 193.298C222.626 192.698 221.43 191.198 221.031 189.498C220.932 189.098 220.932 188.798 220.932 188.398C220.932 188.098 221.131 187.898 221.43 187.998C221.629 187.998 221.829 188.198 221.829 188.398C221.829 188.698 221.829 188.998 221.929 189.298C222.228 190.598 223.025 191.598 224.221 192.198C224.919 192.498 225.617 192.698 226.315 192.698C228.01 192.598 229.305 191.698 230.003 190.298C230.302 189.698 230.502 188.998 230.502 188.398C230.502 188.198 230.601 187.998 230.801 187.998C231 187.998 231.2 187.998 231.299 188.198C231.2 188.198 231.2 188.198 231.2 188.298Z" fill="white"/>
<path d="M69.905 55.0983C69.905 56.6983 68.609 57.9982 67.014 57.9982C65.419 57.9982 64.123 56.6983 64.123 55.0983C64.123 53.4983 65.419 52.1982 67.014 52.1982C68.609 52.1982 69.905 53.4983 69.905 55.0983Z" fill="#EEF4FE"/>
<path d="M80.7712 55.0983C80.7712 56.6983 79.4752 57.9982 77.8802 57.9982C76.2852 57.9982 74.9893 56.6983 74.9893 55.0983C74.9893 53.4983 76.2852 52.1982 77.8802 52.1982C79.4752 52.1982 80.7712 53.4983 80.7712 55.0983Z" fill="#EEF4FE"/>
<path d="M91.5378 55.0983C91.5378 56.6983 90.2418 57.9982 88.6468 57.9982C87.0518 57.9982 85.7559 56.6983 85.7559 55.0983C85.7559 53.4983 87.0518 52.1982 88.6468 52.1982C90.2418 52.1982 91.5378 53.4983 91.5378 55.0983Z" fill="#EEF4FE"/>
<g filter="url(#filter0_d_3566_12526)">
<path d="M100.011 106.598H39.7993C30.6279 106.598 23.251 99.1983 23.251 89.9983V88.1983C23.251 78.9983 30.6279 71.5983 39.7993 71.5983H99.9114C109.083 71.5983 116.46 78.9983 116.46 88.1983V89.9983C116.559 99.1983 109.083 106.598 100.011 106.598Z" fill="white"/>
</g>
<g filter="url(#filter1_d_3566_12526)">
<path fill-rule="evenodd" clip-rule="evenodd" d="M58.2358 138.398H95.1256C101.107 138.398 105.992 133.598 105.892 127.598V126.398C105.892 120.398 101.107 115.598 95.1256 115.598H48.571C42.5897 115.598 37.8047 120.398 37.8047 126.398V127.598C37.8047 133.598 42.5897 138.398 48.571 138.398H52.5584V142.898L58.2358 138.398Z" fill="white"/>
</g>
<g opacity="0.4">
<path d="M101.805 80.0983H35.4121V84.4983H101.805V80.0983Z" fill="#B7D5F2"/>
<path d="M93.2314 93.7983H35.4121V98.1983H93.2314V93.7983Z" fill="#B7D5F2"/>
<path d="M85.057 87.3983H35.4121V91.7982H85.057V87.3983Z" fill="#B7D5F2"/>
</g>
<g filter="url(#filter2_d_3566_12526)">
<path fill-rule="evenodd" clip-rule="evenodd" d="M92.2349 173.998H95.1258C101.107 173.998 105.992 169.198 105.992 163.198V161.998C105.992 155.998 101.207 151.198 95.2255 151.198H27.3376C21.3563 151.198 16.5713 155.998 16.5713 161.998V163.198C16.5713 169.198 21.3563 173.998 27.3376 173.998H86.6908L92.2349 178.598V173.998Z" fill="white"/>
</g>
<g opacity="0.4">
<path d="M96.7201 120.198H47.0752V123.498H96.7201V120.198Z" fill="#B7D5F2"/>
<path d="M90.34 130.498H47.0752V133.798H90.34V130.498Z" fill="#B7D5F2"/>
<path d="M84.1593 125.698H47.0752V128.998H84.1593V125.698Z" fill="#B7D5F2"/>
</g>
<g opacity="0.4">
<path d="M69.8045 155.798H26.9385V159.098H69.8045V155.798Z" fill="#B7D5F2"/>
<path d="M86.2531 166.098H26.9385V169.398H86.2531V166.098Z" fill="#B7D5F2"/>
<path d="M77.7796 161.298H26.9385V164.598H77.7796V161.298Z" fill="#B7D5F2"/>
</g>
<path d="M84.1602 104.798L92.2349 111.498V104.798H84.1602Z" fill="white"/>
<path d="M260.716 158.6H129.925C125.14 158.6 121.252 154.7 121.252 149.9V67.7C121.252 62.9 125.14 59 129.925 59H260.716C265.501 59 269.389 62.9 269.389 67.7V149.9C269.389 154.7 265.501 158.6 260.716 158.6Z" fill="white"/>
<path d="M257.826 75.2998H190.437V79.4998H257.826V75.2998Z" fill="#D1E1F2"/>
<path d="M257.826 92.5996H190.437V96.7996H257.826V92.5996Z" fill="#D1E1F2"/>
<path d="M179.072 109H134.212V113H179.072V109Z" fill="#D1E1F2"/>
<path d="M230.511 83.8998H190.437V88.0998H230.511V83.8998Z" fill="#D1E1F2"/>
<path d="M257.826 101.9H190.437V106.1H257.826V101.9Z" fill="#D1E1F2"/>
<path d="M179.072 118H134.212V123H179.072V118Z" fill="#D1E1F2"/>
<path d="M221.041 119.1H190.437V123.3H221.041V119.1Z" fill="#D1E1F2"/>
<path d="M248.555 110.5H190.437V114.7H248.555V110.5Z" fill="#D1E1F2"/>
<path d="M173.09 127H134.212V131H173.09V127Z" fill="#D1E1F2"/>
<path d="M184.155 145.2L189.937 132.6L192.728 152.3L196.018 144.3H211.271L215.956 133.6L221.638 145H243.669L246.361 125.8L248.654 152.3L250.348 145H257.227" stroke="#D1E1F2" stroke-miterlimit="10" stroke-linecap="round" stroke-linejoin="round"/>
<path d="M145.576 76.2002H133.812V88.0002H145.576V76.2002Z" fill="#D1E1F2"/>
<path d="M162.423 76.2002H150.66V88.0002H162.423V76.2002Z" fill="#D1E1F2"/>
<path d="M179.17 76.2002H167.407V88.0002H179.17V76.2002Z" fill="#D1E1F2"/>
<g filter="url(#filter3_d_3566_12526)">
<path d="M68.9028 43.068C70.8571 28.1736 60.4047 14.51 45.5566 12.5496C30.7085 10.5892 17.0876 21.0744 15.1333 35.9688C13.179 50.8633 23.6315 64.5268 38.4795 66.4872C53.3276 68.4476 66.9485 57.9625 68.9028 43.068Z" fill="white"/>
</g>
<path d="M56.4465 29.9982H27.4372C25.6428 29.9982 24.1475 31.4982 24.1475 33.2982V49.9982C24.1475 51.7982 25.6428 53.2982 27.4372 53.2982H56.3468C58.1412 53.2982 59.6366 51.7982 59.6366 49.9982V33.2982C59.7363 31.4982 58.2409 29.9982 56.4465 29.9982Z" fill="#F3B659"/>
<path d="M44.1842 34.7982H39.6982V48.2982H44.1842V34.7982Z" fill="white"/>
<path d="M48.7178 43.8188V39.3188H35.2598V43.8188H48.7178Z" fill="white"/>
<path d="M49.0699 30.9982H34.8145V28.5983C34.8145 27.0983 36.0107 25.8983 37.506 25.8983H46.2786C47.774 25.8983 48.9702 27.0983 48.9702 28.5983V30.9982H49.0699ZM35.911 29.8983H47.9733V28.5983C47.9733 27.6983 47.2755 26.9982 46.3783 26.9982H37.6057C36.7085 26.9982 36.0107 27.6983 36.0107 28.5983V29.8983H35.911Z" fill="#F3B659"/>
<path d="M375.258 76H286.987C280.25 76 274.796 81.474 274.796 88.236V273.892C274.796 280.654 280.25 286.128 286.987 286.128H375.258C381.995 286.128 387.449 280.654 387.449 273.892V88.259C387.449 81.497 381.995 76 375.258 76Z" fill="white"/>
<path d="M274.772 264.623V273.915C274.772 280.677 280.226 286.151 286.964 286.151H375.234C381.972 286.151 387.426 280.677 387.426 273.915V264.623H274.772Z" fill="#3A3E45"/>
<path d="M387.449 103.785V88.2598C387.449 81.4978 381.995 76.0238 375.258 76.0238H286.987C280.25 76.0238 274.796 81.4978 274.796 88.2598V106.016L387.449 103.785Z" fill="#3A3E45"/>
<path d="M348.446 94.078H316.822C315.814 94.078 315.012 93.273 315.012 92.261C315.012 91.249 315.814 90.444 316.822 90.444H348.446C349.454 90.444 350.256 91.249 350.256 92.261C350.233 93.273 349.431 94.078 348.446 94.078Z" fill="white"/>
<path d="M277.66 101.346L278.874 267.406L274.772 264.623V106.015L276.079 101.346H277.66Z" fill="#3A3E45"/>
<path d="M383.966 100.081L387.449 103.784V264.623L382.339 267.406L383.966 100.081Z" fill="#3A3E45"/>
<path d="M287.49 255.699H374.73V194.749C374.73 194.749 364.601 194.864 360.224 204.409C355.848 213.954 352.066 229.157 342.992 232.078C334.926 234.677 327.959 222.464 319.205 225.224C310.452 227.961 308.664 242.382 303.485 243.762C298.284 245.142 297.321 241.968 292.555 245.004C287.444 248.201 287.49 255.699 287.49 255.699Z" fill="#45ABA8"/>
<path d="M333.46 124.921H313.844C313.432 124.921 313.088 124.576 313.088 124.162C313.088 123.748 313.432 123.403 313.844 123.403H333.46C333.872 123.403 334.216 123.748 334.216 124.162C334.193 124.599 333.872 124.921 333.46 124.921Z" fill="#D1E1F2"/>
<path d="M368.612 131.844H313.821C313.408 131.844 313.064 131.499 313.064 131.085C313.064 130.671 313.408 130.326 313.821 130.326H368.612C369.024 130.326 369.368 130.671 369.368 131.085C369.368 131.522 369.024 131.844 368.612 131.844Z" fill="#D1E1F2"/>
<path d="M368.612 138.767H313.821C313.408 138.767 313.064 138.422 313.064 138.008C313.064 137.594 313.408 137.249 313.821 137.249H368.612C369.024 137.249 369.368 137.594 369.368 138.008C369.368 138.445 369.024 138.767 368.612 138.767Z" fill="#D1E1F2"/>
<path d="M359.88 149.025C344.069 140.929 332.428 158.57 331.19 160.824C329.953 158.57 318.38 140.607 302.5 149.025C282.265 159.743 293.059 190.54 330.755 213.494C368.451 190.54 380.252 159.444 359.88 149.025Z" fill="#D42F33"/>
<path d="M330.686 206.663L323.376 176.694L320.649 185.411H299.154V183.916H319.549L323.559 171.105L330.457 199.441L337.79 158.409L343.381 189.298L346.292 183.962H363.364V185.457H347.162L342.671 193.783L337.813 166.85L330.686 206.663Z" fill="white"/>
<path d="M303.018 138.739C307.215 137.91 309.948 133.823 309.122 129.61C308.296 125.397 304.224 122.654 300.027 123.483C295.829 124.312 293.096 128.4 293.922 132.612C294.748 136.825 298.821 139.568 303.018 138.739Z" fill="#D1E1F2"/>
<path d="M343.015 256.228C342.603 256.228 342.259 255.883 342.259 255.469V232.423C342.259 232.009 342.603 231.664 343.015 231.664C343.427 231.664 343.771 232.009 343.771 232.423V255.469C343.748 255.883 343.427 256.228 343.015 256.228Z" fill="white"/>
<path d="M303.05 255.952C302.638 255.952 302.294 255.607 302.294 255.193V244.222C302.294 243.808 302.638 243.463 303.05 243.463C303.463 243.463 303.806 243.808 303.806 244.222V255.193C303.806 255.607 303.463 255.952 303.05 255.952Z" fill="white"/>
<defs>
<filter id="filter0_d_3566_12526" x="9.25098" y="59.5983" width="125.21" height="67" filterUnits="userSpaceOnUse" color-interpolation-filters="sRGB">
<feFlood flood-opacity="0" result="BackgroundImageFix"/>
<feColorMatrix in="SourceAlpha" type="matrix" values="0 0 0 0 0 0 0 0 0 0 0 0 0 0 0 0 0 0 127 0" result="hardAlpha"/>
<feOffset dx="2" dy="4"/>
<feGaussianBlur stdDeviation="8"/>
<feColorMatrix type="matrix" values="0 0 0 0 0.333333 0 0 0 0 0.352941 0 0 0 0 0.537255 0 0 0 0.2 0"/>
<feBlend mode="normal" in2="BackgroundImageFix" result="effect1_dropShadow_3566_12526"/>
<feBlend mode="normal" in="SourceGraphic" in2="effect1_dropShadow_3566_12526" result="shape"/>
</filter>
<filter id="filter1_d_3566_12526" x="23.8047" y="103.598" width="100.089" height="59.2999" filterUnits="userSpaceOnUse" color-interpolation-filters="sRGB">
<feFlood flood-opacity="0" result="BackgroundImageFix"/>
<feColorMatrix in="SourceAlpha" type="matrix" values="0 0 0 0 0 0 0 0 0 0 0 0 0 0 0 0 0 0 127 0" result="hardAlpha"/>
<feOffset dx="2" dy="4"/>
<feGaussianBlur stdDeviation="8"/>
<feColorMatrix type="matrix" values="0 0 0 0 0.333333 0 0 0 0 0.352941 0 0 0 0 0.537255 0 0 0 0.2 0"/>
<feBlend mode="normal" in2="BackgroundImageFix" result="effect1_dropShadow_3566_12526"/>
<feBlend mode="normal" in="SourceGraphic" in2="effect1_dropShadow_3566_12526" result="shape"/>
</filter>
<filter id="filter2_d_3566_12526" x="2.57129" y="139.198" width="121.421" height="59.4002" filterUnits="userSpaceOnUse" color-interpolation-filters="sRGB">
<feFlood flood-opacity="0" result="BackgroundImageFix"/>
<feColorMatrix in="SourceAlpha" type="matrix" values="0 0 0 0 0 0 0 0 0 0 0 0 0 0 0 0 0 0 127 0" result="hardAlpha"/>
<feOffset dx="2" dy="4"/>
<feGaussianBlur stdDeviation="8"/>
<feColorMatrix type="matrix" values="0 0 0 0 0.333333 0 0 0 0 0.352941 0 0 0 0 0.537255 0 0 0 0.2 0"/>
<feBlend mode="normal" in2="BackgroundImageFix" result="effect1_dropShadow_3566_12526"/>
<feBlend mode="normal" in="SourceGraphic" in2="effect1_dropShadow_3566_12526" result="shape"/>
</filter>
<filter id="filter3_d_3566_12526" x="0.898438" y="0.313965" width="86.2393" height="86.4089" filterUnits="userSpaceOnUse" color-interpolation-filters="sRGB">
<feFlood flood-opacity="0" result="BackgroundImageFix"/>
<feColorMatrix in="SourceAlpha" type="matrix" values="0 0 0 0 0 0 0 0 0 0 0 0 0 0 0 0 0 0 127 0" result="hardAlpha"/>
<feOffset dx="2" dy="4"/>
<feGaussianBlur stdDeviation="8"/>
<feColorMatrix type="matrix" values="0 0 0 0 0.333333 0 0 0 0 0.352941 0 0 0 0 0.537255 0 0 0 0.2 0"/>
<feBlend mode="normal" in2="BackgroundImageFix" result="effect1_dropShadow_3566_12526"/>
<feBlend mode="normal" in="SourceGraphic" in2="effect1_dropShadow_3566_12526" result="shape"/>
</filter>
</defs>
</svg>
